<?xml version="1.0" encoding="UTF-8"?>
<svg width="50px" height="72px" viewBox="0 0 50 72" version="1.1" xmlns="http://www.w3.org/2000/svg" xmlns:xlink="http://www.w3.org/1999/xlink">
    <title>Group 2</title>
    <g id="Page-1" stroke="none" stroke-width="1" fill="none" fill-rule="evenodd">
        <g id="Logo-Copy" transform="translate(-13.000000, -1.000000)">
            <g id="Group-2" transform="translate(13.365310, 1.908222)">
                <g id="J" transform="translate(8.848306, 21.229027) rotate(-3.000000) translate(-8.848306, -21.229027) translate(1.080616, 0.377954)" fill="#0000FF" fill-rule="nonzero">
                    <path d="M2.13761904,-1.42108547e-14 L15.5353818,0.702146996 L15.5353818,7.80819033 L13.2504668,7.688443 L12.9059245,32.1183386 C12.5421002,33.3805963 12.0129012,34.5376658 11.3183276,35.5895472 C10.6237539,36.6414286 9.9415834,37.5959136 9.27181595,38.4530022 C8.60204851,39.3100907 7.66354722,40.393139 6.45631208,41.702147 L-1.13686838e-13,40.788201 C0.975710594,39.3856925 1.27595032,38.7919418 1.82995549,37.8803112 C2.38396066,36.9686806 2.94210019,35.9635495 3.50437409,34.8649178 C4.066648,33.7662861 4.50489089,32.5936331 4.81910278,31.3469589 L6.07869088,7.31258615 L1.76622714,7.08657951 L2.13761904,-1.42108547e-14 Z" id="Path"></path>
                </g>
                <g id="G" transform="translate(15.181565, 33.951153)" fill="#0000FF" fill-rule="nonzero">
                    <path d="M26.859375,36.140625 L26.859375,30.046875 C25.890625,31.75 24.9453125,33 24.0234375,33.796875 C23.1015625,34.59375 22.0585938,35.234375 20.8945312,35.71875 C19.7304688,36.203125 18.171875,36.4375 16.21875,36.421875 C15.25,36.40625 14.28125,36.2929688 13.3125,36.0820312 C12.34375,35.8710938 11.40625,35.5742188 10.5,35.1914062 C9.59375,34.8085938 8.70703125,34.3476562 7.83984375,33.8085938 C6.97265625,33.2695312 6.1875,32.6484375 5.484375,31.9453125 C3.75,30.1953125 2.40234375,28.1679688 1.44140625,25.8632812 C0.48046875,23.5585938 0,21.046875 0,18.328125 C0,16.65625 0.203125,15.0390625 0.609375,13.4765625 C1.015625,11.9140625 1.5859375,10.453125 2.3203125,9.09375 C3.0546875,7.734375 3.94140625,6.49609375 4.98046875,5.37890625 C6.01953125,4.26171875 7.17578125,3.3046875 8.44921875,2.5078125 C9.72265625,1.7109375 11.09375,1.09375 12.5625,0.65625 C14.03125,0.21875 15.5703125,0 17.1796875,0 C19.0234375,0 20.625,0.24609375 21.984375,0.73828125 C23.34375,1.23046875 24.8046875,2.1484375 26.3671875,3.4921875 L31.6171875,3.4921875 L31.6171875,11.4140625 L24.375,11.4140625 C23.65625,10.3046875 22.9804688,9.5 22.3476562,9 C21.7148438,8.5 21.0273438,8.0859375 20.2851562,7.7578125 C19.5429688,7.4296875 18.5078125,7.265625 17.1796875,7.265625 C15.8671875,7.265625 14.6484375,7.5625 13.5234375,8.15625 C12.3984375,8.75 11.4257812,9.55078125 10.6054688,10.5585938 C9.78515625,11.5664063 9.140625,12.7539062 8.671875,14.1210938 C8.203125,15.4882812 7.96875,16.890625 7.96875,18.328125 C7.96875,19.75 8.1796875,21.1015625 8.6015625,22.3828125 C9.0234375,23.6640625 9.6640625,24.8164062 10.5234375,25.8398438 C11.3828125,26.8632812 12.3828125,27.6484375 13.5234375,28.1953125 C14.6640625,28.7421875 15.8828125,29.015625 17.1796875,29.015625 C18.8359375,29.015625 20.28125,28.53125 21.515625,27.5625 C22.75,26.59375 23.640625,25.2734375 24.1875,23.6015625 L17.4140625,23.6015625 C17.6380186,22.9136386 18.2032775,21.9266595 19.1098391,20.640625 C20.0164007,19.3545905 21.0956731,18.2009447 22.3476562,17.1796875 L33.8671875,17.1796875 L33.8671875,36.140625 L26.859375,36.140625 Z" id="Path"></path>
                </g>
                <g id="i" transform="translate(24.634690, 27.091778)"></g>
                <path d="M15.6346895,29.5917778 C15.6346895,29.2453359 15.6982488,28.9199614 15.8253675,28.6156542 C15.9524861,28.3113471 16.1290398,28.046834 16.3550285,27.8221149 C16.5810172,27.5973958 16.8470247,27.4194932 17.1530511,27.2884071 C17.4590775,27.1573209 17.7909984,27.0917778 18.1488138,27.0917778 C18.4877968,27.0917778 18.8079475,27.1573209 19.1092658,27.2884071 C19.410584,27.4194932 19.6742375,27.5973958 19.9002262,27.8221149 C20.1262149,28.046834 20.3051226,28.3113471 20.4369494,28.6156542 C20.5687761,28.9199614 20.6346895,29.2453359 20.6346895,29.5917778 C20.6346895,29.9382198 20.5687761,30.2635943 20.4369494,30.5679014 C20.3051226,30.8722086 20.1262149,31.1367217 19.9002262,31.3614408 C19.6742375,31.5861599 19.410584,31.7640625 19.1092658,31.8951486 C18.8079475,32.0262348 18.4877968,32.0917778 18.1488138,32.0917778 C17.7909984,32.0917778 17.4590775,32.0262348 17.1530511,31.8951486 C16.8470247,31.7640625 16.5810172,31.5861599 16.3550285,31.3614408 C16.1290398,31.1367217 15.9524861,30.8722086 15.8253675,30.5679014 C15.6982488,30.2635943 15.6346895,29.9382198 15.6346895,29.5917778 Z" id="Path" fill="#FF5C00" fill-rule="nonzero"></path>
                <line x1="2.1346895" y1="55.5917778" x2="47.1346895" y2="1.59177784" id="Line" stroke="#FF5C00" stroke-linecap="round"></line>
                <rect id="Rectangle" stroke="#0000FF" x="2.1346895" y="0.591777841" width="45" height="64"></rect>
            </g>
        </g>
    </g>
</svg>